<mxfile host="Electron" agent="Mozilla/5.0 (Macintosh; Intel Mac OS X 10_15_7) AppleWebKit/537.36 (KHTML, like Gecko) draw.io/26.1.1 Chrome/132.0.6834.210 Electron/34.3.3 Safari/537.36" version="26.1.1">
  <diagram name="Page-1" id="Y96QY9owC4YCQpXOcGoP">
    <mxGraphModel dx="951" dy="878" grid="1" gridSize="10" guides="1" tooltips="1" connect="1" arrows="1" fold="1" page="1" pageScale="1" pageWidth="827" pageHeight="1169" math="0" shadow="0">
      <root>
        <mxCell id="0" />
        <mxCell id="1" parent="0" />
        <mxCell id="aB-2MxLiPETIVKis2EKo-10" style="edgeStyle=orthogonalEdgeStyle;rounded=0;orthogonalLoop=1;jettySize=auto;html=1;entryX=0;entryY=0.5;entryDx=0;entryDy=0;endArrow=block;endFill=1;" parent="1" source="aB-2MxLiPETIVKis2EKo-1" target="aB-2MxLiPETIVKis2EKo-2" edge="1">
          <mxGeometry relative="1" as="geometry" />
        </mxCell>
        <mxCell id="aB-2MxLiPETIVKis2EKo-1" value="docker-cli" style="rounded=1;whiteSpace=wrap;html=1;fillColor=#e1d5e7;strokeColor=none;shadow=0;glass=0;" parent="1" vertex="1">
          <mxGeometry x="40" y="90" width="80" height="40" as="geometry" />
        </mxCell>
        <mxCell id="aB-2MxLiPETIVKis2EKo-11" style="edgeStyle=orthogonalEdgeStyle;rounded=0;orthogonalLoop=1;jettySize=auto;html=1;entryX=0;entryY=0.5;entryDx=0;entryDy=0;endArrow=block;endFill=1;" parent="1" source="aB-2MxLiPETIVKis2EKo-2" target="aB-2MxLiPETIVKis2EKo-3" edge="1">
          <mxGeometry relative="1" as="geometry" />
        </mxCell>
        <mxCell id="aB-2MxLiPETIVKis2EKo-2" value="dockerd" style="rounded=1;whiteSpace=wrap;html=1;fillColor=#dae8fc;strokeColor=none;shadow=0;glass=0;" parent="1" vertex="1">
          <mxGeometry x="170" y="90" width="80" height="40" as="geometry" />
        </mxCell>
        <mxCell id="aB-2MxLiPETIVKis2EKo-12" style="edgeStyle=orthogonalEdgeStyle;rounded=0;orthogonalLoop=1;jettySize=auto;html=1;endArrow=block;endFill=1;" parent="1" source="aB-2MxLiPETIVKis2EKo-3" target="aB-2MxLiPETIVKis2EKo-4" edge="1">
          <mxGeometry relative="1" as="geometry" />
        </mxCell>
        <mxCell id="aB-2MxLiPETIVKis2EKo-13" style="edgeStyle=orthogonalEdgeStyle;rounded=0;orthogonalLoop=1;jettySize=auto;html=1;entryX=0;entryY=0.5;entryDx=0;entryDy=0;endArrow=block;endFill=1;" parent="1" source="aB-2MxLiPETIVKis2EKo-3" target="aB-2MxLiPETIVKis2EKo-5" edge="1">
          <mxGeometry relative="1" as="geometry" />
        </mxCell>
        <mxCell id="aB-2MxLiPETIVKis2EKo-3" value="containerd" style="rounded=1;whiteSpace=wrap;html=1;fillColor=#d5e8d4;strokeColor=none;shadow=0;glass=0;" parent="1" vertex="1">
          <mxGeometry x="300" y="90" width="80" height="40" as="geometry" />
        </mxCell>
        <mxCell id="aB-2MxLiPETIVKis2EKo-14" style="edgeStyle=orthogonalEdgeStyle;rounded=0;orthogonalLoop=1;jettySize=auto;html=1;entryX=0;entryY=0.5;entryDx=0;entryDy=0;endArrow=block;endFill=1;" parent="1" source="aB-2MxLiPETIVKis2EKo-4" target="aB-2MxLiPETIVKis2EKo-6" edge="1">
          <mxGeometry relative="1" as="geometry" />
        </mxCell>
        <mxCell id="aB-2MxLiPETIVKis2EKo-4" value="containerd-shim" style="rounded=1;whiteSpace=wrap;html=1;fillColor=#ffe6cc;strokeColor=none;shadow=0;glass=0;" parent="1" vertex="1">
          <mxGeometry x="430" y="50" width="110" height="40" as="geometry" />
        </mxCell>
        <mxCell id="aB-2MxLiPETIVKis2EKo-15" style="edgeStyle=orthogonalEdgeStyle;rounded=0;orthogonalLoop=1;jettySize=auto;html=1;entryX=0;entryY=0.5;entryDx=0;entryDy=0;endArrow=block;endFill=1;" parent="1" source="aB-2MxLiPETIVKis2EKo-5" target="aB-2MxLiPETIVKis2EKo-7" edge="1">
          <mxGeometry relative="1" as="geometry" />
        </mxCell>
        <mxCell id="aB-2MxLiPETIVKis2EKo-5" value="containerd-shim" style="rounded=1;whiteSpace=wrap;html=1;fillColor=#ffe6cc;strokeColor=none;shadow=0;glass=0;" parent="1" vertex="1">
          <mxGeometry x="430" y="130" width="110" height="40" as="geometry" />
        </mxCell>
        <mxCell id="aB-2MxLiPETIVKis2EKo-16" style="edgeStyle=orthogonalEdgeStyle;rounded=0;orthogonalLoop=1;jettySize=auto;html=1;endArrow=block;endFill=1;" parent="1" source="aB-2MxLiPETIVKis2EKo-6" target="aB-2MxLiPETIVKis2EKo-8" edge="1">
          <mxGeometry relative="1" as="geometry" />
        </mxCell>
        <mxCell id="aB-2MxLiPETIVKis2EKo-6" value="runc" style="rounded=1;whiteSpace=wrap;html=1;fillColor=#fff2cc;strokeColor=none;shadow=0;glass=0;" parent="1" vertex="1">
          <mxGeometry x="590" y="50" width="80" height="40" as="geometry" />
        </mxCell>
        <mxCell id="aB-2MxLiPETIVKis2EKo-17" style="edgeStyle=orthogonalEdgeStyle;rounded=0;orthogonalLoop=1;jettySize=auto;html=1;endArrow=block;endFill=1;" parent="1" source="aB-2MxLiPETIVKis2EKo-7" target="aB-2MxLiPETIVKis2EKo-9" edge="1">
          <mxGeometry relative="1" as="geometry" />
        </mxCell>
        <mxCell id="aB-2MxLiPETIVKis2EKo-7" value="runc" style="rounded=1;whiteSpace=wrap;html=1;fillColor=#fff2cc;strokeColor=none;shadow=0;glass=0;" parent="1" vertex="1">
          <mxGeometry x="590" y="130" width="80" height="40" as="geometry" />
        </mxCell>
        <mxCell id="aB-2MxLiPETIVKis2EKo-8" value="Container" style="sketch=0;outlineConnect=0;fontColor=#232F3E;gradientColor=none;strokeColor=#232F3E;fillColor=#ffffff;dashed=0;verticalLabelPosition=bottom;verticalAlign=top;align=center;html=1;fontSize=12;fontStyle=0;aspect=fixed;shape=mxgraph.aws4.resourceIcon;resIcon=mxgraph.aws4.container_1;" parent="1" vertex="1">
          <mxGeometry x="720" y="40" width="60" height="60" as="geometry" />
        </mxCell>
        <mxCell id="aB-2MxLiPETIVKis2EKo-9" value="Container" style="sketch=0;outlineConnect=0;fontColor=#232F3E;gradientColor=none;strokeColor=#232F3E;fillColor=#ffffff;dashed=0;verticalLabelPosition=bottom;verticalAlign=top;align=center;html=1;fontSize=12;fontStyle=0;aspect=fixed;shape=mxgraph.aws4.resourceIcon;resIcon=mxgraph.aws4.container_1;" parent="1" vertex="1">
          <mxGeometry x="720" y="120" width="60" height="60" as="geometry" />
        </mxCell>
      </root>
    </mxGraphModel>
  </diagram>
</mxfile>
